# xmcd
# 
# Track frame offsets:
#     150
#     23270
#     37247
#     56670
#     92225
#     112352
#     126082
#     152835
#     165855
#     181960
#     207000
#     223435
# 
# Disc length: 3151
# 
# Revision: 1
# Processed by: cddbd v1.5.2PL0 Copyright (c) Steve Scherf et al.
# Submitted via: fre:ac v1.0.27
# 
DISCID=a80c4d0c
DTITLE=Chicago's Best West and South Side Blues Singers - Chicago's Best West and South Side Blues Singers Vol. 1
DYEAR=1995
DGENRE=Blues
TTITLE0=Booba Barnes - Louise
TTITLE1=Booba Barnes - Heartbroken Man
TTITLE2=Booba Barnes - How Many More Years
TTITLE3=Booba Barnes - Heartbroken Man (Long Version)
TTITLE4=Barkin' Bill Smith - She Leaves You
TTITLE5=Barkin' Bill Smith - Lie To Me
TTITLE6=Little Wolf - Highway Blues
TTITLE7=Little Wolf - Worried 'bout My Baby
TTITLE8=Jake Dawson - Somewhere Down The Line
TTITLE9=Taildragger - My Heart Is Bald
TTITLE10=Taildragger- Highway Bound
TTITLE11=Taildragger - My Woman's Gone
EXTD=YEAR: 1995
EXTT0=
EXTT1=
EXTT2=
EXTT3=
EXTT4=
EXTT5=
EXTT6=
EXTT7=
EXTT8=
EXTT9=
EXTT10=
EXTT11=
PLAYORDER=
